<mxfile host="app.diagrams.net" modified="2024-04-17T01:07:02.849Z" agent="Mozilla/5.0 (Windows NT 10.0; Win64; x64) AppleWebKit/537.36 (KHTML, like Gecko) Chrome/123.0.0.0 Safari/537.36 Edg/123.0.0.0" etag="aNNI97NQ7vpPLbHxf361" version="24.2.5" type="device">
  <diagram name="PÃ¡gina-1" id="_gUXdDiFfZJYwdBrNvrx">
    <mxGraphModel dx="861" dy="367" grid="1" gridSize="10" guides="1" tooltips="1" connect="1" arrows="1" fold="1" page="1" pageScale="1" pageWidth="827" pageHeight="1169" math="0" shadow="0">
      <root>
        <mxCell id="0" />
        <mxCell id="1" parent="0" />
        <mxCell id="MsD9x33chIxf8HbZAu95-1" value="CLIENTES" style="rounded=0;whiteSpace=wrap;html=1;" vertex="1" parent="1">
          <mxGeometry x="130" y="409" width="90" height="60" as="geometry" />
        </mxCell>
        <mxCell id="MsD9x33chIxf8HbZAu95-5" value="REALIZA" style="rhombus;whiteSpace=wrap;html=1;" vertex="1" parent="1">
          <mxGeometry x="250" y="410" width="80" height="60" as="geometry" />
        </mxCell>
        <mxCell id="MsD9x33chIxf8HbZAu95-117" style="edgeStyle=none;rounded=0;orthogonalLoop=1;jettySize=auto;html=1;entryX=0;entryY=0;entryDx=0;entryDy=0;exitX=0.633;exitY=0.979;exitDx=0;exitDy=0;exitPerimeter=0;" edge="1" parent="1" source="MsD9x33chIxf8HbZAu95-8" target="MsD9x33chIxf8HbZAu95-109">
          <mxGeometry relative="1" as="geometry" />
        </mxCell>
        <mxCell id="MsD9x33chIxf8HbZAu95-6" value="VENTAS" style="rounded=0;whiteSpace=wrap;html=1;" vertex="1" parent="1">
          <mxGeometry x="354" y="409" width="120" height="60" as="geometry" />
        </mxCell>
        <mxCell id="MsD9x33chIxf8HbZAu95-7" value="COMPONE" style="rhombus;whiteSpace=wrap;html=1;" vertex="1" parent="1">
          <mxGeometry x="500" y="409" width="80" height="60" as="geometry" />
        </mxCell>
        <mxCell id="MsD9x33chIxf8HbZAu95-8" value="PRODUCTOS" style="rounded=0;whiteSpace=wrap;html=1;" vertex="1" parent="1">
          <mxGeometry x="620" y="410" width="120" height="60" as="geometry" />
        </mxCell>
        <mxCell id="MsD9x33chIxf8HbZAu95-9" value="CLASIFICA" style="rhombus;whiteSpace=wrap;html=1;" vertex="1" parent="1">
          <mxGeometry x="640" y="500" width="80" height="57" as="geometry" />
        </mxCell>
        <mxCell id="MsD9x33chIxf8HbZAu95-10" value="CATEGORIAS" style="rounded=0;whiteSpace=wrap;html=1;" vertex="1" parent="1">
          <mxGeometry x="630" y="594" width="120" height="60" as="geometry" />
        </mxCell>
        <mxCell id="MsD9x33chIxf8HbZAu95-11" value="PROVEE" style="rhombus;whiteSpace=wrap;html=1;" vertex="1" parent="1">
          <mxGeometry x="630" y="320" width="80" height="60" as="geometry" />
        </mxCell>
        <mxCell id="MsD9x33chIxf8HbZAu95-12" value="&lt;font style=&quot;font-size: 9px;&quot;&gt;Telefono&lt;/font&gt;" style="ellipse;whiteSpace=wrap;html=1;" vertex="1" parent="1">
          <mxGeometry x="50" y="482" width="60" height="30" as="geometry" />
        </mxCell>
        <mxCell id="MsD9x33chIxf8HbZAu95-32" style="edgeStyle=orthogonalEdgeStyle;rounded=0;orthogonalLoop=1;jettySize=auto;html=1;exitX=0.25;exitY=1;exitDx=0;exitDy=0;entryX=1;entryY=0.5;entryDx=0;entryDy=0;" edge="1" parent="1" source="MsD9x33chIxf8HbZAu95-1" target="MsD9x33chIxf8HbZAu95-15">
          <mxGeometry relative="1" as="geometry">
            <mxPoint x="158.78679656440357" y="515.6066017177982" as="sourcePoint" />
          </mxGeometry>
        </mxCell>
        <mxCell id="MsD9x33chIxf8HbZAu95-35" style="edgeStyle=orthogonalEdgeStyle;rounded=0;orthogonalLoop=1;jettySize=auto;html=1;exitX=0.5;exitY=1;exitDx=0;exitDy=0;entryX=1;entryY=0;entryDx=0;entryDy=0;" edge="1" parent="1" source="MsD9x33chIxf8HbZAu95-1" target="MsD9x33chIxf8HbZAu95-17">
          <mxGeometry relative="1" as="geometry">
            <mxPoint x="180" y="520" as="sourcePoint" />
            <Array as="points">
              <mxPoint x="180" y="469" />
              <mxPoint x="180" y="560" />
              <mxPoint x="160" y="560" />
              <mxPoint x="160" y="592" />
            </Array>
          </mxGeometry>
        </mxCell>
        <mxCell id="MsD9x33chIxf8HbZAu95-39" style="edgeStyle=orthogonalEdgeStyle;rounded=0;orthogonalLoop=1;jettySize=auto;html=1;entryX=0;entryY=0;entryDx=0;entryDy=0;" edge="1" parent="1" target="MsD9x33chIxf8HbZAu95-21">
          <mxGeometry relative="1" as="geometry">
            <mxPoint x="200" y="470" as="sourcePoint" />
            <Array as="points">
              <mxPoint x="220" y="516" />
              <mxPoint x="220" y="530" />
              <mxPoint x="238" y="530" />
            </Array>
          </mxGeometry>
        </mxCell>
        <mxCell id="MsD9x33chIxf8HbZAu95-15" value="&lt;font style=&quot;font-size: 9px;&quot;&gt;Calle&lt;/font&gt;" style="ellipse;whiteSpace=wrap;html=1;" vertex="1" parent="1">
          <mxGeometry x="70" y="550" width="60" height="30" as="geometry" />
        </mxCell>
        <mxCell id="MsD9x33chIxf8HbZAu95-17" value="&lt;font style=&quot;font-size: 9px;&quot;&gt;Numero&lt;/font&gt;" style="ellipse;whiteSpace=wrap;html=1;" vertex="1" parent="1">
          <mxGeometry x="100" y="588" width="60" height="30" as="geometry" />
        </mxCell>
        <mxCell id="MsD9x33chIxf8HbZAu95-20" value="&lt;font style=&quot;font-size: 9px;&quot;&gt;Ciudad&lt;/font&gt;" style="ellipse;whiteSpace=wrap;html=1;" vertex="1" parent="1">
          <mxGeometry x="167" y="588" width="60" height="30" as="geometry" />
        </mxCell>
        <mxCell id="MsD9x33chIxf8HbZAu95-21" value="&lt;font style=&quot;font-size: 9px;&quot;&gt;Comuna&lt;/font&gt;" style="ellipse;whiteSpace=wrap;html=1;" vertex="1" parent="1">
          <mxGeometry x="229" y="564" width="60" height="30" as="geometry" />
        </mxCell>
        <mxCell id="MsD9x33chIxf8HbZAu95-22" value="&lt;font style=&quot;font-size: 9px;&quot;&gt;PKCuit-Cli&lt;/font&gt;" style="ellipse;whiteSpace=wrap;html=1;fillColor=#FFE6CC;" vertex="1" parent="1">
          <mxGeometry x="239" y="512" width="60" height="30" as="geometry" />
        </mxCell>
        <mxCell id="MsD9x33chIxf8HbZAu95-24" style="edgeStyle=orthogonalEdgeStyle;rounded=0;orthogonalLoop=1;jettySize=auto;html=1;exitX=0;exitY=1;exitDx=0;exitDy=0;entryX=0.719;entryY=-0.034;entryDx=0;entryDy=0;entryPerimeter=0;" edge="1" parent="1" source="MsD9x33chIxf8HbZAu95-1" target="MsD9x33chIxf8HbZAu95-12">
          <mxGeometry relative="1" as="geometry">
            <Array as="points">
              <mxPoint x="113" y="469" />
            </Array>
          </mxGeometry>
        </mxCell>
        <mxCell id="MsD9x33chIxf8HbZAu95-30" style="edgeStyle=orthogonalEdgeStyle;rounded=0;orthogonalLoop=1;jettySize=auto;html=1;exitX=0.75;exitY=1;exitDx=0;exitDy=0;entryX=0.332;entryY=0.071;entryDx=0;entryDy=0;entryPerimeter=0;" edge="1" parent="1" source="MsD9x33chIxf8HbZAu95-1" target="MsD9x33chIxf8HbZAu95-22">
          <mxGeometry relative="1" as="geometry" />
        </mxCell>
        <mxCell id="MsD9x33chIxf8HbZAu95-37" style="edgeStyle=orthogonalEdgeStyle;rounded=0;orthogonalLoop=1;jettySize=auto;html=1;exitX=0.5;exitY=1;exitDx=0;exitDy=0;entryX=0.685;entryY=0.004;entryDx=0;entryDy=0;entryPerimeter=0;" edge="1" parent="1" target="MsD9x33chIxf8HbZAu95-20">
          <mxGeometry relative="1" as="geometry">
            <mxPoint x="180" y="520" as="sourcePoint" />
            <Array as="points">
              <mxPoint x="180" y="470" />
              <mxPoint x="190" y="470" />
              <mxPoint x="190" y="550" />
              <mxPoint x="208" y="550" />
            </Array>
          </mxGeometry>
        </mxCell>
        <mxCell id="MsD9x33chIxf8HbZAu95-46" value="" style="endArrow=none;html=1;rounded=0;exitX=1;exitY=0.5;exitDx=0;exitDy=0;entryX=0;entryY=0.5;entryDx=0;entryDy=0;" edge="1" parent="1" source="MsD9x33chIxf8HbZAu95-1" target="MsD9x33chIxf8HbZAu95-5">
          <mxGeometry width="50" height="50" relative="1" as="geometry">
            <mxPoint x="450" y="500" as="sourcePoint" />
            <mxPoint x="270" y="439" as="targetPoint" />
          </mxGeometry>
        </mxCell>
        <mxCell id="MsD9x33chIxf8HbZAu95-51" value="" style="endArrow=none;html=1;rounded=0;exitX=1;exitY=0.5;exitDx=0;exitDy=0;" edge="1" parent="1" source="MsD9x33chIxf8HbZAu95-5">
          <mxGeometry width="50" height="50" relative="1" as="geometry">
            <mxPoint x="450" y="500" as="sourcePoint" />
            <mxPoint x="350" y="440" as="targetPoint" />
          </mxGeometry>
        </mxCell>
        <mxCell id="MsD9x33chIxf8HbZAu95-52" value="" style="endArrow=none;html=1;rounded=0;entryX=1;entryY=0.5;entryDx=0;entryDy=0;exitX=0;exitY=0.5;exitDx=0;exitDy=0;" edge="1" parent="1" source="MsD9x33chIxf8HbZAu95-133" target="MsD9x33chIxf8HbZAu95-6">
          <mxGeometry width="50" height="50" relative="1" as="geometry">
            <mxPoint x="450" y="500" as="sourcePoint" />
            <mxPoint x="500" y="450" as="targetPoint" />
          </mxGeometry>
        </mxCell>
        <mxCell id="MsD9x33chIxf8HbZAu95-53" value="" style="endArrow=none;html=1;rounded=0;entryX=1;entryY=0.5;entryDx=0;entryDy=0;exitX=0;exitY=0.5;exitDx=0;exitDy=0;" edge="1" parent="1" source="MsD9x33chIxf8HbZAu95-8" target="MsD9x33chIxf8HbZAu95-7">
          <mxGeometry width="50" height="50" relative="1" as="geometry">
            <mxPoint x="450" y="500" as="sourcePoint" />
            <mxPoint x="500" y="450" as="targetPoint" />
          </mxGeometry>
        </mxCell>
        <mxCell id="MsD9x33chIxf8HbZAu95-54" value="" style="endArrow=none;html=1;rounded=0;entryX=0.5;entryY=1;entryDx=0;entryDy=0;exitX=0.422;exitY=-0.044;exitDx=0;exitDy=0;exitPerimeter=0;" edge="1" parent="1" source="MsD9x33chIxf8HbZAu95-8" target="MsD9x33chIxf8HbZAu95-11">
          <mxGeometry width="50" height="50" relative="1" as="geometry">
            <mxPoint x="450" y="500" as="sourcePoint" />
            <mxPoint x="500" y="450" as="targetPoint" />
          </mxGeometry>
        </mxCell>
        <mxCell id="MsD9x33chIxf8HbZAu95-55" value="" style="endArrow=none;html=1;rounded=0;entryX=0.5;entryY=1;entryDx=0;entryDy=0;exitX=0.5;exitY=0;exitDx=0;exitDy=0;" edge="1" parent="1" source="MsD9x33chIxf8HbZAu95-9" target="MsD9x33chIxf8HbZAu95-8">
          <mxGeometry width="50" height="50" relative="1" as="geometry">
            <mxPoint x="450" y="500" as="sourcePoint" />
            <mxPoint x="500" y="450" as="targetPoint" />
          </mxGeometry>
        </mxCell>
        <mxCell id="MsD9x33chIxf8HbZAu95-61" value="&lt;font style=&quot;font-size: 9px;&quot;&gt;Nombre&lt;/font&gt;" style="ellipse;whiteSpace=wrap;html=1;" vertex="1" parent="1">
          <mxGeometry x="60" y="513.5" width="60" height="30" as="geometry" />
        </mxCell>
        <mxCell id="MsD9x33chIxf8HbZAu95-62" value="&lt;font style=&quot;font-size: 9px;&quot;&gt;FKId_Producto&lt;/font&gt;" style="ellipse;whiteSpace=wrap;html=1;fillColor=#E6FFCC;" vertex="1" parent="1">
          <mxGeometry x="460" y="310" width="60" height="30" as="geometry" />
        </mxCell>
        <mxCell id="MsD9x33chIxf8HbZAu95-63" value="&lt;font style=&quot;font-size: 9px;&quot;&gt;Fecha&lt;/font&gt;" style="ellipse;whiteSpace=wrap;html=1;" vertex="1" parent="1">
          <mxGeometry x="260" y="300" width="60" height="30" as="geometry" />
        </mxCell>
        <mxCell id="MsD9x33chIxf8HbZAu95-71" style="edgeStyle=none;rounded=0;orthogonalLoop=1;jettySize=auto;html=1;entryX=0.5;entryY=1;entryDx=0;entryDy=0;exitX=0.25;exitY=0;exitDx=0;exitDy=0;" edge="1" parent="1" source="MsD9x33chIxf8HbZAu95-6" target="MsD9x33chIxf8HbZAu95-65">
          <mxGeometry relative="1" as="geometry">
            <mxPoint x="410" y="360" as="sourcePoint" />
            <mxPoint x="384" y="409" as="targetPoint" />
          </mxGeometry>
        </mxCell>
        <mxCell id="MsD9x33chIxf8HbZAu95-65" value="&lt;font style=&quot;font-size: 9px;&quot;&gt;Cantidad&lt;/font&gt;" style="ellipse;whiteSpace=wrap;html=1;" vertex="1" parent="1">
          <mxGeometry x="299" y="260" width="60" height="30" as="geometry" />
        </mxCell>
        <mxCell id="MsD9x33chIxf8HbZAu95-66" value="&lt;font style=&quot;font-size: 9px;&quot;&gt;Descuento&lt;/font&gt;" style="ellipse;whiteSpace=wrap;html=1;" vertex="1" parent="1">
          <mxGeometry x="370" y="250" width="60" height="30" as="geometry" />
        </mxCell>
        <mxCell id="MsD9x33chIxf8HbZAu95-67" value="&lt;font style=&quot;font-size: 9px;&quot;&gt;Monto Final&lt;/font&gt;" style="ellipse;whiteSpace=wrap;html=1;" vertex="1" parent="1">
          <mxGeometry x="440" y="270" width="60" height="30" as="geometry" />
        </mxCell>
        <mxCell id="MsD9x33chIxf8HbZAu95-73" style="edgeStyle=none;rounded=0;orthogonalLoop=1;jettySize=auto;html=1;entryX=1;entryY=1;entryDx=0;entryDy=0;exitX=0;exitY=0;exitDx=0;exitDy=0;" edge="1" parent="1" source="MsD9x33chIxf8HbZAu95-6" target="MsD9x33chIxf8HbZAu95-68">
          <mxGeometry relative="1" as="geometry">
            <mxPoint x="360" y="420" as="sourcePoint" />
            <mxPoint x="320" y="366" as="targetPoint" />
          </mxGeometry>
        </mxCell>
        <mxCell id="MsD9x33chIxf8HbZAu95-68" value="&lt;font style=&quot;font-size: 9px;&quot;&gt;PKNro_Factura&lt;/font&gt;" style="ellipse;whiteSpace=wrap;html=1;fillColor=#FFE6CC;" vertex="1" parent="1">
          <mxGeometry x="239" y="340" width="60" height="30" as="geometry" />
        </mxCell>
        <mxCell id="MsD9x33chIxf8HbZAu95-70" value="&lt;font style=&quot;font-size: 9px;&quot;&gt;FKCuit_Cli&lt;/font&gt;" style="ellipse;whiteSpace=wrap;html=1;fillColor=#E6FFCC;" vertex="1" parent="1">
          <mxGeometry x="470" y="360" width="60" height="30" as="geometry" />
        </mxCell>
        <mxCell id="MsD9x33chIxf8HbZAu95-72" style="edgeStyle=none;rounded=0;orthogonalLoop=1;jettySize=auto;html=1;entryX=1;entryY=1;entryDx=0;entryDy=0;exitX=0.105;exitY=-0.067;exitDx=0;exitDy=0;exitPerimeter=0;" edge="1" parent="1" source="MsD9x33chIxf8HbZAu95-6" target="MsD9x33chIxf8HbZAu95-63">
          <mxGeometry relative="1" as="geometry">
            <mxPoint x="330" y="380" as="sourcePoint" />
          </mxGeometry>
        </mxCell>
        <mxCell id="MsD9x33chIxf8HbZAu95-74" style="edgeStyle=none;rounded=0;orthogonalLoop=1;jettySize=auto;html=1;exitX=0.408;exitY=0.018;exitDx=0;exitDy=0;exitPerimeter=0;entryX=0.5;entryY=1;entryDx=0;entryDy=0;" edge="1" parent="1" source="MsD9x33chIxf8HbZAu95-6" target="MsD9x33chIxf8HbZAu95-66">
          <mxGeometry relative="1" as="geometry">
            <mxPoint x="380" y="310" as="sourcePoint" />
            <mxPoint x="420" y="310" as="targetPoint" />
          </mxGeometry>
        </mxCell>
        <mxCell id="MsD9x33chIxf8HbZAu95-75" style="edgeStyle=none;rounded=0;orthogonalLoop=1;jettySize=auto;html=1;entryX=0;entryY=1;entryDx=0;entryDy=0;exitX=0.5;exitY=0;exitDx=0;exitDy=0;" edge="1" parent="1" source="MsD9x33chIxf8HbZAu95-6" target="MsD9x33chIxf8HbZAu95-67">
          <mxGeometry relative="1" as="geometry">
            <mxPoint x="430" y="400" as="sourcePoint" />
          </mxGeometry>
        </mxCell>
        <mxCell id="MsD9x33chIxf8HbZAu95-76" style="edgeStyle=none;rounded=0;orthogonalLoop=1;jettySize=auto;html=1;exitX=0.639;exitY=-0.032;exitDx=0;exitDy=0;exitPerimeter=0;entryX=0;entryY=1;entryDx=0;entryDy=0;" edge="1" parent="1" source="MsD9x33chIxf8HbZAu95-6" target="MsD9x33chIxf8HbZAu95-62">
          <mxGeometry relative="1" as="geometry">
            <mxPoint x="440" y="370" as="targetPoint" />
          </mxGeometry>
        </mxCell>
        <mxCell id="MsD9x33chIxf8HbZAu95-77" style="edgeStyle=none;rounded=0;orthogonalLoop=1;jettySize=auto;html=1;entryX=0;entryY=1;entryDx=0;entryDy=0;exitX=0.942;exitY=-0.027;exitDx=0;exitDy=0;exitPerimeter=0;" edge="1" parent="1" source="MsD9x33chIxf8HbZAu95-6" target="MsD9x33chIxf8HbZAu95-70">
          <mxGeometry relative="1" as="geometry">
            <mxPoint x="480" y="410" as="sourcePoint" />
          </mxGeometry>
        </mxCell>
        <mxCell id="MsD9x33chIxf8HbZAu95-78" value="PROVEEDOR" style="rounded=0;whiteSpace=wrap;html=1;" vertex="1" parent="1">
          <mxGeometry x="610" y="240" width="120" height="60" as="geometry" />
        </mxCell>
        <mxCell id="MsD9x33chIxf8HbZAu95-79" value="" style="endArrow=none;html=1;rounded=0;entryX=0.5;entryY=1;entryDx=0;entryDy=0;exitX=0.5;exitY=0;exitDx=0;exitDy=0;" edge="1" parent="1" source="MsD9x33chIxf8HbZAu95-11" target="MsD9x33chIxf8HbZAu95-78">
          <mxGeometry width="50" height="50" relative="1" as="geometry">
            <mxPoint x="360" y="370" as="sourcePoint" />
            <mxPoint x="410" y="320" as="targetPoint" />
          </mxGeometry>
        </mxCell>
        <mxCell id="MsD9x33chIxf8HbZAu95-80" value="&lt;font style=&quot;font-size: 9px;&quot;&gt;Telefono&lt;/font&gt;" style="ellipse;whiteSpace=wrap;html=1;" vertex="1" parent="1">
          <mxGeometry x="760" y="166" width="60" height="30" as="geometry" />
        </mxCell>
        <mxCell id="MsD9x33chIxf8HbZAu95-81" value="&lt;font style=&quot;font-size: 9px;&quot;&gt;Calle&lt;/font&gt;" style="ellipse;whiteSpace=wrap;html=1;" vertex="1" parent="1">
          <mxGeometry x="730" y="130" width="60" height="30" as="geometry" />
        </mxCell>
        <mxCell id="MsD9x33chIxf8HbZAu95-82" value="&lt;font style=&quot;font-size: 9px;&quot;&gt;Numero&lt;/font&gt;" style="ellipse;whiteSpace=wrap;html=1;" vertex="1" parent="1">
          <mxGeometry x="630" y="90" width="60" height="30" as="geometry" />
        </mxCell>
        <mxCell id="MsD9x33chIxf8HbZAu95-83" value="&lt;font style=&quot;font-size: 9px;&quot;&gt;Ciudad&lt;/font&gt;" style="ellipse;whiteSpace=wrap;html=1;" vertex="1" parent="1">
          <mxGeometry x="570" y="110" width="60" height="30" as="geometry" />
        </mxCell>
        <mxCell id="MsD9x33chIxf8HbZAu95-84" value="&lt;font style=&quot;font-size: 9px;&quot;&gt;Comuna&lt;/font&gt;" style="ellipse;whiteSpace=wrap;html=1;" vertex="1" parent="1">
          <mxGeometry x="540" y="150" width="60" height="30" as="geometry" />
        </mxCell>
        <mxCell id="MsD9x33chIxf8HbZAu95-85" value="&lt;font style=&quot;font-size: 9px;&quot;&gt;PKCuit-Prov&lt;/font&gt;" style="ellipse;whiteSpace=wrap;html=1;fillColor=#FFE6CC;" vertex="1" parent="1">
          <mxGeometry x="530" y="196" width="60" height="30" as="geometry" />
        </mxCell>
        <mxCell id="MsD9x33chIxf8HbZAu95-86" value="&lt;font style=&quot;font-size: 9px;&quot;&gt;Nombre&lt;/font&gt;" style="ellipse;whiteSpace=wrap;html=1;" vertex="1" parent="1">
          <mxGeometry x="750" y="210" width="60" height="30" as="geometry" />
        </mxCell>
        <mxCell id="MsD9x33chIxf8HbZAu95-92" value="&lt;font style=&quot;font-size: 9px;&quot;&gt;Pagina Web&lt;/font&gt;" style="ellipse;whiteSpace=wrap;html=1;" vertex="1" parent="1">
          <mxGeometry x="700" y="90" width="60" height="30" as="geometry" />
        </mxCell>
        <mxCell id="MsD9x33chIxf8HbZAu95-95" value="" style="endArrow=classic;html=1;rounded=0;entryX=1;entryY=1;entryDx=0;entryDy=0;exitX=0;exitY=0;exitDx=0;exitDy=0;" edge="1" parent="1" source="MsD9x33chIxf8HbZAu95-78" target="MsD9x33chIxf8HbZAu95-85">
          <mxGeometry width="50" height="50" relative="1" as="geometry">
            <mxPoint x="660" y="280" as="sourcePoint" />
            <mxPoint x="710" y="230" as="targetPoint" />
          </mxGeometry>
        </mxCell>
        <mxCell id="MsD9x33chIxf8HbZAu95-96" value="" style="endArrow=classic;html=1;rounded=0;entryX=1.011;entryY=0.743;entryDx=0;entryDy=0;entryPerimeter=0;" edge="1" parent="1" target="MsD9x33chIxf8HbZAu95-84">
          <mxGeometry width="50" height="50" relative="1" as="geometry">
            <mxPoint x="640" y="240" as="sourcePoint" />
            <mxPoint x="710" y="230" as="targetPoint" />
          </mxGeometry>
        </mxCell>
        <mxCell id="MsD9x33chIxf8HbZAu95-97" value="" style="endArrow=classic;html=1;rounded=0;entryX=1;entryY=1;entryDx=0;entryDy=0;exitX=0.386;exitY=0.039;exitDx=0;exitDy=0;exitPerimeter=0;" edge="1" parent="1" source="MsD9x33chIxf8HbZAu95-78" target="MsD9x33chIxf8HbZAu95-83">
          <mxGeometry width="50" height="50" relative="1" as="geometry">
            <mxPoint x="660" y="280" as="sourcePoint" />
            <mxPoint x="710" y="230" as="targetPoint" />
          </mxGeometry>
        </mxCell>
        <mxCell id="MsD9x33chIxf8HbZAu95-98" value="" style="endArrow=classic;html=1;rounded=0;entryX=0.719;entryY=0.918;entryDx=0;entryDy=0;entryPerimeter=0;exitX=0.5;exitY=0;exitDx=0;exitDy=0;" edge="1" parent="1" source="MsD9x33chIxf8HbZAu95-78" target="MsD9x33chIxf8HbZAu95-82">
          <mxGeometry width="50" height="50" relative="1" as="geometry">
            <mxPoint x="660" y="280" as="sourcePoint" />
            <mxPoint x="710" y="230" as="targetPoint" />
          </mxGeometry>
        </mxCell>
        <mxCell id="MsD9x33chIxf8HbZAu95-100" value="" style="endArrow=classic;html=1;rounded=0;entryX=0.294;entryY=1.048;entryDx=0;entryDy=0;entryPerimeter=0;exitX=0.75;exitY=0;exitDx=0;exitDy=0;" edge="1" parent="1" source="MsD9x33chIxf8HbZAu95-78" target="MsD9x33chIxf8HbZAu95-92">
          <mxGeometry width="50" height="50" relative="1" as="geometry">
            <mxPoint x="660" y="280" as="sourcePoint" />
            <mxPoint x="710" y="230" as="targetPoint" />
          </mxGeometry>
        </mxCell>
        <mxCell id="MsD9x33chIxf8HbZAu95-101" value="" style="endArrow=classic;html=1;rounded=0;entryX=0;entryY=1;entryDx=0;entryDy=0;exitX=0.862;exitY=-0.021;exitDx=0;exitDy=0;exitPerimeter=0;" edge="1" parent="1" source="MsD9x33chIxf8HbZAu95-78" target="MsD9x33chIxf8HbZAu95-81">
          <mxGeometry width="50" height="50" relative="1" as="geometry">
            <mxPoint x="660" y="280" as="sourcePoint" />
            <mxPoint x="710" y="230" as="targetPoint" />
          </mxGeometry>
        </mxCell>
        <mxCell id="MsD9x33chIxf8HbZAu95-102" value="" style="endArrow=classic;html=1;rounded=0;entryX=0;entryY=1;entryDx=0;entryDy=0;exitX=1;exitY=0;exitDx=0;exitDy=0;" edge="1" parent="1" source="MsD9x33chIxf8HbZAu95-78" target="MsD9x33chIxf8HbZAu95-80">
          <mxGeometry width="50" height="50" relative="1" as="geometry">
            <mxPoint x="660" y="280" as="sourcePoint" />
            <mxPoint x="710" y="230" as="targetPoint" />
          </mxGeometry>
        </mxCell>
        <mxCell id="MsD9x33chIxf8HbZAu95-103" value="" style="endArrow=classic;html=1;rounded=0;entryX=0.5;entryY=1;entryDx=0;entryDy=0;exitX=1;exitY=0.5;exitDx=0;exitDy=0;" edge="1" parent="1" source="MsD9x33chIxf8HbZAu95-78" target="MsD9x33chIxf8HbZAu95-86">
          <mxGeometry width="50" height="50" relative="1" as="geometry">
            <mxPoint x="660" y="280" as="sourcePoint" />
            <mxPoint x="710" y="230" as="targetPoint" />
          </mxGeometry>
        </mxCell>
        <mxCell id="MsD9x33chIxf8HbZAu95-104" value="&lt;font style=&quot;font-size: 9px;&quot;&gt;PKId_Producto&lt;/font&gt;" style="ellipse;whiteSpace=wrap;html=1;fillColor=#FFE6CC;" vertex="1" parent="1">
          <mxGeometry x="760" y="338" width="60" height="30" as="geometry" />
        </mxCell>
        <mxCell id="MsD9x33chIxf8HbZAu95-105" value="&lt;font style=&quot;font-size: 9px;&quot;&gt;Nombre&lt;/font&gt;" style="ellipse;whiteSpace=wrap;html=1;" vertex="1" parent="1">
          <mxGeometry x="760" y="378" width="60" height="30" as="geometry" />
        </mxCell>
        <mxCell id="MsD9x33chIxf8HbZAu95-106" value="&lt;font size=&quot;1&quot;&gt;Precio Actual&lt;/font&gt;" style="ellipse;whiteSpace=wrap;html=1;" vertex="1" parent="1">
          <mxGeometry x="761" y="421" width="60" height="30" as="geometry" />
        </mxCell>
        <mxCell id="MsD9x33chIxf8HbZAu95-107" value="&lt;font size=&quot;1&quot;&gt;Stock&lt;/font&gt;" style="ellipse;whiteSpace=wrap;html=1;" vertex="1" parent="1">
          <mxGeometry x="762" y="462" width="60" height="30" as="geometry" />
        </mxCell>
        <mxCell id="MsD9x33chIxf8HbZAu95-108" value="&lt;font style=&quot;font-size: 9px;&quot;&gt;FKCuit-Prov&lt;/font&gt;" style="ellipse;whiteSpace=wrap;html=1;fillColor=#E6FFCC;" vertex="1" parent="1">
          <mxGeometry x="762" y="500" width="60" height="30" as="geometry" />
        </mxCell>
        <mxCell id="MsD9x33chIxf8HbZAu95-109" value="&lt;font size=&quot;1&quot;&gt;FKid_Categ&lt;/font&gt;" style="ellipse;whiteSpace=wrap;html=1;fillColor=#E6FFCC;" vertex="1" parent="1">
          <mxGeometry x="766" y="542" width="60" height="30" as="geometry" />
        </mxCell>
        <mxCell id="MsD9x33chIxf8HbZAu95-111" value="" style="endArrow=classic;html=1;rounded=0;entryX=0;entryY=0.5;entryDx=0;entryDy=0;exitX=0.75;exitY=0;exitDx=0;exitDy=0;" edge="1" parent="1" source="MsD9x33chIxf8HbZAu95-8" target="MsD9x33chIxf8HbZAu95-104">
          <mxGeometry width="50" height="50" relative="1" as="geometry">
            <mxPoint x="440" y="480" as="sourcePoint" />
            <mxPoint x="490" y="430" as="targetPoint" />
          </mxGeometry>
        </mxCell>
        <mxCell id="MsD9x33chIxf8HbZAu95-112" value="" style="endArrow=classic;html=1;rounded=0;entryX=0;entryY=0.5;entryDx=0;entryDy=0;exitX=1;exitY=0;exitDx=0;exitDy=0;" edge="1" parent="1" source="MsD9x33chIxf8HbZAu95-8" target="MsD9x33chIxf8HbZAu95-105">
          <mxGeometry width="50" height="50" relative="1" as="geometry">
            <mxPoint x="440" y="480" as="sourcePoint" />
            <mxPoint x="490" y="430" as="targetPoint" />
          </mxGeometry>
        </mxCell>
        <mxCell id="MsD9x33chIxf8HbZAu95-113" value="" style="endArrow=classic;html=1;rounded=0;entryX=0;entryY=0.5;entryDx=0;entryDy=0;exitX=0.999;exitY=0.638;exitDx=0;exitDy=0;exitPerimeter=0;" edge="1" parent="1" source="MsD9x33chIxf8HbZAu95-8" target="MsD9x33chIxf8HbZAu95-106">
          <mxGeometry width="50" height="50" relative="1" as="geometry">
            <mxPoint x="440" y="480" as="sourcePoint" />
            <mxPoint x="490" y="430" as="targetPoint" />
          </mxGeometry>
        </mxCell>
        <mxCell id="MsD9x33chIxf8HbZAu95-114" value="" style="endArrow=classic;html=1;rounded=0;entryX=0;entryY=0.5;entryDx=0;entryDy=0;exitX=0.843;exitY=1.014;exitDx=0;exitDy=0;exitPerimeter=0;" edge="1" parent="1" source="MsD9x33chIxf8HbZAu95-8" target="MsD9x33chIxf8HbZAu95-107">
          <mxGeometry width="50" height="50" relative="1" as="geometry">
            <mxPoint x="440" y="480" as="sourcePoint" />
            <mxPoint x="490" y="430" as="targetPoint" />
          </mxGeometry>
        </mxCell>
        <mxCell id="MsD9x33chIxf8HbZAu95-115" value="" style="endArrow=classic;html=1;rounded=0;entryX=0;entryY=0;entryDx=0;entryDy=0;exitX=0.75;exitY=1;exitDx=0;exitDy=0;" edge="1" parent="1" source="MsD9x33chIxf8HbZAu95-8" target="MsD9x33chIxf8HbZAu95-108">
          <mxGeometry width="50" height="50" relative="1" as="geometry">
            <mxPoint x="440" y="480" as="sourcePoint" />
            <mxPoint x="490" y="430" as="targetPoint" />
          </mxGeometry>
        </mxCell>
        <mxCell id="MsD9x33chIxf8HbZAu95-118" value="&lt;font size=&quot;1&quot;&gt;PKid_Categ&lt;/font&gt;" style="ellipse;whiteSpace=wrap;html=1;fillColor=#FFE6CC;" vertex="1" parent="1">
          <mxGeometry x="500" y="530" width="60" height="30" as="geometry" />
        </mxCell>
        <mxCell id="MsD9x33chIxf8HbZAu95-119" value="&lt;font style=&quot;font-size: 9px;&quot;&gt;Nombre&lt;/font&gt;" style="ellipse;whiteSpace=wrap;html=1;" vertex="1" parent="1">
          <mxGeometry x="500" y="580" width="60" height="30" as="geometry" />
        </mxCell>
        <mxCell id="MsD9x33chIxf8HbZAu95-120" value="&lt;font style=&quot;font-size: 9px;&quot;&gt;Descripcion&lt;/font&gt;" style="ellipse;whiteSpace=wrap;html=1;" vertex="1" parent="1">
          <mxGeometry x="500" y="624" width="60" height="30" as="geometry" />
        </mxCell>
        <mxCell id="MsD9x33chIxf8HbZAu95-121" value="" style="endArrow=classic;html=1;rounded=0;entryX=1;entryY=0.5;entryDx=0;entryDy=0;exitX=0;exitY=0;exitDx=0;exitDy=0;" edge="1" parent="1" source="MsD9x33chIxf8HbZAu95-10" target="MsD9x33chIxf8HbZAu95-118">
          <mxGeometry width="50" height="50" relative="1" as="geometry">
            <mxPoint x="370" y="560" as="sourcePoint" />
            <mxPoint x="420" y="510" as="targetPoint" />
          </mxGeometry>
        </mxCell>
        <mxCell id="MsD9x33chIxf8HbZAu95-122" value="" style="endArrow=classic;html=1;rounded=0;entryX=1;entryY=0.5;entryDx=0;entryDy=0;exitX=0;exitY=0.25;exitDx=0;exitDy=0;" edge="1" parent="1" source="MsD9x33chIxf8HbZAu95-10" target="MsD9x33chIxf8HbZAu95-119">
          <mxGeometry width="50" height="50" relative="1" as="geometry">
            <mxPoint x="640" y="604" as="sourcePoint" />
            <mxPoint x="570" y="555" as="targetPoint" />
            <Array as="points" />
          </mxGeometry>
        </mxCell>
        <mxCell id="MsD9x33chIxf8HbZAu95-123" value="" style="endArrow=classic;html=1;rounded=0;entryX=1;entryY=0.5;entryDx=0;entryDy=0;" edge="1" parent="1" target="MsD9x33chIxf8HbZAu95-120">
          <mxGeometry width="50" height="50" relative="1" as="geometry">
            <mxPoint x="630" y="619" as="sourcePoint" />
            <mxPoint x="570" y="605" as="targetPoint" />
            <Array as="points" />
          </mxGeometry>
        </mxCell>
        <mxCell id="MsD9x33chIxf8HbZAu95-125" value="" style="edgeStyle=none;rounded=0;orthogonalLoop=1;jettySize=auto;html=1;" edge="1" parent="1" source="MsD9x33chIxf8HbZAu95-9" target="MsD9x33chIxf8HbZAu95-109">
          <mxGeometry relative="1" as="geometry" />
        </mxCell>
        <mxCell id="MsD9x33chIxf8HbZAu95-124" value="&lt;font style=&quot;font-size: 9px;&quot;&gt;(1:N)&lt;/font&gt;" style="text;strokeColor=none;align=center;fillColor=none;html=1;verticalAlign=middle;whiteSpace=wrap;rounded=0;" vertex="1" parent="1">
          <mxGeometry x="650" y="569" width="40" height="20" as="geometry" />
        </mxCell>
        <mxCell id="MsD9x33chIxf8HbZAu95-128" value="" style="endArrow=none;html=1;rounded=0;entryX=0.5;entryY=1;entryDx=0;entryDy=0;exitX=0.5;exitY=0;exitDx=0;exitDy=0;" edge="1" parent="1" source="MsD9x33chIxf8HbZAu95-10" target="MsD9x33chIxf8HbZAu95-9">
          <mxGeometry width="50" height="50" relative="1" as="geometry">
            <mxPoint x="370" y="560" as="sourcePoint" />
            <mxPoint x="420" y="510" as="targetPoint" />
          </mxGeometry>
        </mxCell>
        <mxCell id="MsD9x33chIxf8HbZAu95-129" value="&lt;font style=&quot;font-size: 9px;&quot;&gt;(1:1)&lt;/font&gt;" style="text;strokeColor=none;align=center;fillColor=none;html=1;verticalAlign=middle;whiteSpace=wrap;rounded=0;" vertex="1" parent="1">
          <mxGeometry x="670" y="472" width="40" height="20" as="geometry" />
        </mxCell>
        <mxCell id="MsD9x33chIxf8HbZAu95-130" value="&lt;font style=&quot;font-size: 9px;&quot;&gt;(1:N)&lt;/font&gt;" style="text;strokeColor=none;align=center;fillColor=none;html=1;verticalAlign=middle;whiteSpace=wrap;rounded=0;" vertex="1" parent="1">
          <mxGeometry x="670" y="383" width="40" height="20" as="geometry" />
        </mxCell>
        <mxCell id="MsD9x33chIxf8HbZAu95-131" value="&lt;font style=&quot;font-size: 9px;&quot;&gt;(1:1)&lt;/font&gt;" style="text;strokeColor=none;align=center;fillColor=none;html=1;verticalAlign=middle;whiteSpace=wrap;rounded=0;" vertex="1" parent="1">
          <mxGeometry x="660" y="300" width="40" height="20" as="geometry" />
        </mxCell>
        <mxCell id="MsD9x33chIxf8HbZAu95-132" value="&lt;font style=&quot;font-size: 9px;&quot;&gt;(1:N)&lt;/font&gt;" style="text;strokeColor=none;align=center;fillColor=none;html=1;verticalAlign=middle;whiteSpace=wrap;rounded=0;" vertex="1" parent="1">
          <mxGeometry x="580" y="421" width="40" height="20" as="geometry" />
        </mxCell>
        <mxCell id="MsD9x33chIxf8HbZAu95-134" value="" style="endArrow=none;html=1;rounded=0;entryX=1;entryY=0.5;entryDx=0;entryDy=0;exitX=0;exitY=0.5;exitDx=0;exitDy=0;" edge="1" parent="1" source="MsD9x33chIxf8HbZAu95-7" target="MsD9x33chIxf8HbZAu95-133">
          <mxGeometry width="50" height="50" relative="1" as="geometry">
            <mxPoint x="500" y="439" as="sourcePoint" />
            <mxPoint x="474" y="439" as="targetPoint" />
          </mxGeometry>
        </mxCell>
        <mxCell id="MsD9x33chIxf8HbZAu95-133" value="&lt;font style=&quot;font-size: 9px;&quot;&gt;(1:N)&lt;/font&gt;" style="text;strokeColor=none;align=center;fillColor=none;html=1;verticalAlign=middle;whiteSpace=wrap;rounded=0;" vertex="1" parent="1">
          <mxGeometry x="474" y="421" width="40" height="20" as="geometry" />
        </mxCell>
        <mxCell id="MsD9x33chIxf8HbZAu95-136" value="&lt;font style=&quot;font-size: 9px;&quot;&gt;(1:1)&lt;/font&gt;" style="text;strokeColor=none;align=center;fillColor=none;html=1;verticalAlign=middle;whiteSpace=wrap;rounded=0;" vertex="1" parent="1">
          <mxGeometry x="320" y="421" width="40" height="20" as="geometry" />
        </mxCell>
        <mxCell id="MsD9x33chIxf8HbZAu95-137" value="&lt;font style=&quot;font-size: 9px;&quot;&gt;(1:N)&lt;/font&gt;" style="text;strokeColor=none;align=center;fillColor=none;html=1;verticalAlign=middle;whiteSpace=wrap;rounded=0;" vertex="1" parent="1">
          <mxGeometry x="220" y="421" width="40" height="20" as="geometry" />
        </mxCell>
      </root>
    </mxGraphModel>
  </diagram>
</mxfile>
